<?xml version="1.0" encoding="UTF-8" standalone="no"?>
<!-- Created with Inkscape (http://www.inkscape.org/) -->

<svg
   width="100mm"
   height="100mm"
   viewBox="0 0 100 100"
   version="1.1"
   id="svg5"
   inkscape:version="1.1.2 (0a00cf5339, 2022-02-04)"
   sodipodi:docname="2d-data.svg"
   xmlns:inkscape="http://www.inkscape.org/namespaces/inkscape"
   xmlns:sodipodi="http://sodipodi.sourceforge.net/DTD/sodipodi-0.dtd"
   xmlns="http://www.w3.org/2000/svg"
   xmlns:svg="http://www.w3.org/2000/svg">
  <sodipodi:namedview
     id="namedview7"
     pagecolor="#ffffff"
     bordercolor="#666666"
     borderopacity="1.0"
     inkscape:pageshadow="2"
     inkscape:pageopacity="0.0"
     inkscape:pagecheckerboard="0"
     inkscape:document-units="mm"
     showgrid="false"
     showguides="true"
     inkscape:guide-bbox="true"
     inkscape:zoom="0.88372615"
     inkscape:cx="153.32804"
     inkscape:cy="191.8015"
     inkscape:window-width="1366"
     inkscape:window-height="704"
     inkscape:window-x="0"
     inkscape:window-y="0"
     inkscape:window-maximized="1"
     inkscape:current-layer="layer1">
    <sodipodi:guide
       position="50.897177,69.461693"
       orientation="1,0"
       id="guide1335" />
    <sodipodi:guide
       position="33.831653,49.701612"
       orientation="0,-1"
       id="guide1337" />
  </sodipodi:namedview>
  <defs
     id="defs2" />
  <g
     inkscape:label="Layer 1"
     inkscape:groupmode="layer"
     id="layer1">
    <ellipse
       style="fill:none;fill-opacity:1;stroke:#000000;stroke-width:2.47445;stroke-linecap:round;stroke-linejoin:round;stroke-miterlimit:4;stroke-dasharray:none;stroke-opacity:1"
       id="path846"
       cx="22.544451"
       cy="22.04063"
       rx="21.946211"
       ry="21.438801" />
    <ellipse
       style="fill:none;fill-opacity:1;stroke:#000000;stroke-width:2.3587;stroke-linecap:round;stroke-linejoin:round;stroke-miterlimit:4;stroke-dasharray:none;stroke-opacity:1"
       id="path846-6"
       cx="22.022795"
       cy="78.524689"
       rx="20.919601"
       ry="20.435928" />
    <ellipse
       style="fill:none;fill-opacity:1;stroke:#000000;stroke-width:3.33327;stroke-linecap:round;stroke-linejoin:round;stroke-miterlimit:4;stroke-dasharray:none;stroke-opacity:1"
       id="path846-7"
       cx="68.621437"
       cy="51.795364"
       rx="29.563204"
       ry="28.879686" />
    <path
       id="text4451"
       style="font-style:normal;font-weight:normal;font-size:10.5833px;line-height:1.25;font-family:sans-serif;fill:#000000;fill-opacity:1;stroke:none;stroke-width:0.950725"
       d="m 58.08332,38.399758 v 27.72331 h 7.706077 c 5.347813,0 9.284434,-1.120335 11.80979,-3.360967 2.525355,-2.240632 3.788052,-5.750169 3.788052,-10.528544 0,-4.753609 -1.256508,-8.244578 -3.769485,-10.472832 -2.512977,-2.240641 -6.455788,-3.360967 -11.828357,-3.360967 z m 3.750907,3.082433 h 4.530797 c 3.825177,0 6.622906,0.866549 8.393128,2.599636 1.782601,1.720709 2.673916,4.437968 2.673916,8.15173 0,3.738519 -0.891315,6.474346 -2.673916,8.207433 -1.770222,1.733087 -4.567951,2.599645 -8.393128,2.599645 h -4.530797 z" />
    <path
       id="text4451-5"
       style="font-style:normal;font-weight:normal;font-size:10.5833px;line-height:1.25;font-family:sans-serif;fill:#000000;fill-opacity:1;stroke:none;stroke-width:0.659632"
       d="m 14.766814,68.37156 v 19.23499 h 5.346631 c 3.71042,0 6.441727,-0.777311 8.193869,-2.331907 1.752143,-1.554595 2.628227,-3.989582 2.628227,-7.304915 0,-3.298149 -0.87179,-5.720254 -2.615344,-7.266261 -1.743554,-1.554602 -4.479156,-2.331907 -8.206752,-2.331907 z m 2.602455,2.138654 h 3.143558 c 2.653984,0 4.595105,0.601229 5.82332,1.80368 1.236805,1.193862 1.855217,3.079151 1.855217,5.655834 0,2.59386 -0.618412,4.492031 -1.855217,5.694482 -1.228215,1.20245 -3.169336,1.803686 -5.82332,1.803686 h -3.143558 z" />
    <text
       xml:space="preserve"
       style="font-style:normal;font-weight:normal;font-size:29.9999px;line-height:1.25;font-family:sans-serif;fill:#000000;fill-opacity:1;stroke:none;stroke-width:0.749998"
       x="12.882377"
       y="32.347244"
       id="text13116"><tspan
         sodipodi:role="line"
         id="tspan13114"
         style="stroke-width:0.749998"
         x="12.882377"
         y="32.347244">2</tspan></text>
  </g>
</svg>
